<mxfile host="65bd71144e">
    <diagram id="phmHL3wRduWG8Qbamx5H" name="Page-1">
        <mxGraphModel dx="1300" dy="1826" grid="1" gridSize="10" guides="1" tooltips="1" connect="1" arrows="1" fold="1" page="1" pageScale="1" pageWidth="850" pageHeight="1100" math="0" shadow="0">
            <root>
                <mxCell id="0"/>
                <mxCell id="1" parent="0"/>
                <mxCell id="2" value="PolygonFactory" style="swimlane;fontStyle=1;align=center;verticalAlign=top;childLayout=stackLayout;horizontal=1;startSize=26;horizontalStack=0;resizeParent=1;resizeParentMax=0;resizeLast=0;collapsible=1;marginBottom=0;strokeColor=#FFFFFF;fillColor=#333333;shadow=0;" parent="1" vertex="1">
                    <mxGeometry x="50" y="220" width="240" height="80" as="geometry"/>
                </mxCell>
                <mxCell id="5" value="+ createRectangle(int, int): Rectangle&#10;+ createSquare(int, int): Square&#10;+ createTriangle(int, int): Triangle" style="text;strokeColor=#FFFFFF;fillColor=#333333;align=left;verticalAlign=top;spacingLeft=4;spacingRight=4;overflow=hidden;rotatable=0;points=[[0,0.5],[1,0.5]];portConstraint=eastwest;shadow=0;" parent="2" vertex="1">
                    <mxGeometry y="26" width="240" height="54" as="geometry"/>
                </mxCell>
                <mxCell id="6" value="Triangle" style="swimlane;fontStyle=1;align=center;verticalAlign=top;childLayout=stackLayout;horizontal=1;startSize=26;horizontalStack=0;resizeParent=1;resizeParentMax=0;resizeLast=0;collapsible=1;marginBottom=0;strokeColor=#FFFFFF;fillColor=#333333;shadow=0;" vertex="1" parent="1">
                    <mxGeometry x="480" y="400" width="160" height="52" as="geometry"/>
                </mxCell>
                <mxCell id="9" value="+ paint(Graphics): void" style="text;strokeColor=#FFFFFF;fillColor=#333333;align=left;verticalAlign=top;spacingLeft=4;spacingRight=4;overflow=hidden;rotatable=0;points=[[0,0.5],[1,0.5]];portConstraint=eastwest;shadow=0;" vertex="1" parent="6">
                    <mxGeometry y="26" width="160" height="26" as="geometry"/>
                </mxCell>
                <mxCell id="10" value="Square" style="swimlane;fontStyle=1;align=center;verticalAlign=top;childLayout=stackLayout;horizontal=1;startSize=26;horizontalStack=0;resizeParent=1;resizeParentMax=0;resizeLast=0;collapsible=1;marginBottom=0;strokeColor=#FFFFFF;fillColor=#333333;shadow=0;" vertex="1" parent="1">
                    <mxGeometry x="80" y="400" width="160" height="52" as="geometry"/>
                </mxCell>
                <mxCell id="13" value="+ paint(Graphics): void" style="text;strokeColor=#FFFFFF;fillColor=#333333;align=left;verticalAlign=top;spacingLeft=4;spacingRight=4;overflow=hidden;rotatable=0;points=[[0,0.5],[1,0.5]];portConstraint=eastwest;shadow=0;" vertex="1" parent="10">
                    <mxGeometry y="26" width="160" height="26" as="geometry"/>
                </mxCell>
                <mxCell id="14" value="Rectangle" style="swimlane;fontStyle=1;align=center;verticalAlign=top;childLayout=stackLayout;horizontal=1;startSize=26;horizontalStack=0;resizeParent=1;resizeParentMax=0;resizeLast=0;collapsible=1;marginBottom=0;strokeColor=#FFFFFF;fillColor=#333333;shadow=0;" vertex="1" parent="1">
                    <mxGeometry x="280" y="400" width="160" height="52" as="geometry"/>
                </mxCell>
                <mxCell id="17" value="+ paint(Graphics): void" style="text;strokeColor=#FFFFFF;fillColor=#333333;align=left;verticalAlign=top;spacingLeft=4;spacingRight=4;overflow=hidden;rotatable=0;points=[[0,0.5],[1,0.5]];portConstraint=eastwest;shadow=0;" vertex="1" parent="14">
                    <mxGeometry y="26" width="160" height="26" as="geometry"/>
                </mxCell>
                <mxCell id="EmACCaGVRRn9EOZ5MB_5-21" value="Extends" style="endArrow=block;endSize=16;endFill=0;html=1;exitX=0.5;exitY=0;exitDx=0;exitDy=0;entryX=0.492;entryY=1.051;entryDx=0;entryDy=0;entryPerimeter=0;strokeColor=#FFFFFF;fillColor=#333333;shadow=0;" edge="1" parent="1" source="6" target="EmACCaGVRRn9EOZ5MB_5-20">
                    <mxGeometry width="160" relative="1" as="geometry">
                        <mxPoint x="630" y="350" as="sourcePoint"/>
                        <mxPoint x="580" y="300" as="targetPoint"/>
                    </mxGeometry>
                </mxCell>
                <mxCell id="EmACCaGVRRn9EOZ5MB_5-17" value="Polygon&#10;&lt;&lt;abstract&gt;&gt;&#10;" style="swimlane;fontStyle=1;align=center;verticalAlign=top;childLayout=stackLayout;horizontal=1;startSize=40;horizontalStack=0;resizeParent=1;resizeParentMax=0;resizeLast=0;collapsible=1;marginBottom=0;strokeColor=#FFFFFF;fillColor=#333333;shadow=0;" vertex="1" parent="1">
                    <mxGeometry x="460" y="200" width="180" height="132" as="geometry"/>
                </mxCell>
                <mxCell id="EmACCaGVRRn9EOZ5MB_5-18" value="- centerPoint: Point" style="text;strokeColor=#FFFFFF;fillColor=#333333;align=left;verticalAlign=top;spacingLeft=4;spacingRight=4;overflow=hidden;rotatable=0;points=[[0,0.5],[1,0.5]];portConstraint=eastwest;shadow=0;" vertex="1" parent="EmACCaGVRRn9EOZ5MB_5-17">
                    <mxGeometry y="40" width="180" height="24" as="geometry"/>
                </mxCell>
                <mxCell id="EmACCaGVRRn9EOZ5MB_5-19" value="" style="line;strokeWidth=1;fillColor=#333333;align=left;verticalAlign=middle;spacingTop=-1;spacingLeft=3;spacingRight=3;rotatable=0;labelPosition=right;points=[];portConstraint=eastwest;strokeColor=#FFFFFF;shadow=0;" vertex="1" parent="EmACCaGVRRn9EOZ5MB_5-17">
                    <mxGeometry y="64" width="180" height="8" as="geometry"/>
                </mxCell>
                <mxCell id="EmACCaGVRRn9EOZ5MB_5-20" value="+ updateCenter(int x, int y): void&lt;br&gt;+ getCenterPoint(): Point&lt;br&gt;&lt;i&gt;+ paint(Graphics): void&lt;/i&gt;" style="text;strokeColor=#FFFFFF;fillColor=#333333;align=left;verticalAlign=top;spacingLeft=4;spacingRight=4;overflow=hidden;rotatable=0;points=[[0,0.5],[1,0.5]];portConstraint=eastwest;fontStyle=0;html=1;shadow=0;" vertex="1" parent="EmACCaGVRRn9EOZ5MB_5-17">
                    <mxGeometry y="72" width="180" height="60" as="geometry"/>
                </mxCell>
                <mxCell id="EmACCaGVRRn9EOZ5MB_5-22" value="" style="endArrow=open;endFill=1;endSize=12;html=1;exitX=0.441;exitY=1.003;exitDx=0;exitDy=0;exitPerimeter=0;entryX=0.544;entryY=-0.012;entryDx=0;entryDy=0;entryPerimeter=0;strokeColor=#FFFFFF;fillColor=#333333;shadow=0;" edge="1" parent="1" source="5" target="10">
                    <mxGeometry width="160" relative="1" as="geometry">
                        <mxPoint x="-30" y="340" as="sourcePoint"/>
                        <mxPoint x="130" y="340" as="targetPoint"/>
                        <Array as="points"/>
                    </mxGeometry>
                </mxCell>
                <mxCell id="EmACCaGVRRn9EOZ5MB_5-23" value="" style="endArrow=open;endFill=1;endSize=12;html=1;entryX=0.5;entryY=0;entryDx=0;entryDy=0;exitX=0.452;exitY=1.003;exitDx=0;exitDy=0;exitPerimeter=0;strokeColor=#FFFFFF;fillColor=#333333;shadow=0;" edge="1" parent="1" source="5" target="14">
                    <mxGeometry width="160" relative="1" as="geometry">
                        <mxPoint x="190" y="250" as="sourcePoint"/>
                        <mxPoint x="218.99999999999997" y="376.9680000000001" as="targetPoint"/>
                        <Array as="points"/>
                    </mxGeometry>
                </mxCell>
                <mxCell id="Rkcdd3xeSiQXFq24NY24-19" value="Extends" style="endArrow=block;endSize=16;endFill=0;html=1;exitX=1;exitY=0;exitDx=0;exitDy=0;entryX=-0.003;entryY=0.985;entryDx=0;entryDy=0;entryPerimeter=0;strokeColor=#FFFFFF;fillColor=#333333;shadow=0;" edge="1" parent="1" source="10" target="EmACCaGVRRn9EOZ5MB_5-20">
                    <mxGeometry width="160" relative="1" as="geometry">
                        <mxPoint x="210" y="320" as="sourcePoint"/>
                        <mxPoint x="480" y="290" as="targetPoint"/>
                        <Array as="points"/>
                    </mxGeometry>
                </mxCell>
                <mxCell id="EmACCaGVRRn9EOZ5MB_5-24" value="" style="endArrow=open;endFill=1;endSize=12;html=1;exitX=0.455;exitY=1;exitDx=0;exitDy=0;exitPerimeter=0;entryX=0.5;entryY=0;entryDx=0;entryDy=0;strokeColor=#FFFFFF;fillColor=#333333;shadow=0;" edge="1" parent="1" source="5" target="6">
                    <mxGeometry width="160" relative="1" as="geometry">
                        <mxPoint x="219.03999999999996" y="218.00199999999995" as="sourcePoint"/>
                        <mxPoint x="197.03999999999996" y="398.9680000000001" as="targetPoint"/>
                        <Array as="points"/>
                    </mxGeometry>
                </mxCell>
                <mxCell id="Rkcdd3xeSiQXFq24NY24-24" value="Extends" style="endArrow=block;endSize=16;endFill=0;html=1;exitX=1;exitY=0;exitDx=0;exitDy=0;entryX=0.201;entryY=1.102;entryDx=0;entryDy=0;entryPerimeter=0;strokeColor=#FFFFFF;fillColor=#333333;shadow=0;" edge="1" parent="1" source="14" target="EmACCaGVRRn9EOZ5MB_5-20">
                    <mxGeometry width="160" relative="1" as="geometry">
                        <mxPoint x="610" y="410" as="sourcePoint"/>
                        <mxPoint x="578.96" y="298.99" as="targetPoint"/>
                    </mxGeometry>
                </mxCell>
                <mxCell id="fz8x1H3jljaNv2-WQJr6-17" value="&lt;p style=&quot;margin: 0px ; margin-top: 4px ; text-align: center&quot;&gt;&lt;b&gt;DrawPolygons&lt;/b&gt;&lt;/p&gt;&lt;hr size=&quot;1&quot;&gt;&lt;p style=&quot;margin: 0px ; margin-left: 4px&quot;&gt;- polygons: List&amp;lt;Polygon&amp;gt;&lt;/p&gt;&lt;p style=&quot;margin: 0px ; margin-left: 4px&quot;&gt;- direction: boolean&lt;/p&gt;&lt;p style=&quot;margin: 0px ; margin-left: 4px&quot;&gt;- ticker: int&lt;/p&gt;&lt;hr size=&quot;1&quot;&gt;&lt;p style=&quot;margin: 0px ; margin-left: 4px&quot;&gt;+ update(): void&lt;/p&gt;&lt;p style=&quot;margin: 0px ; margin-left: 4px&quot;&gt;+ paint(Graphics): void&lt;/p&gt;&lt;p style=&quot;margin: 0px ; margin-left: 4px&quot;&gt;&lt;u&gt;+ main(String[]): void&lt;/u&gt;&lt;/p&gt;" style="verticalAlign=top;align=left;overflow=fill;fontSize=12;fontFamily=Helvetica;html=1;strokeColor=#FFFFFF;fillColor=#333333;shadow=0;" vertex="1" parent="1">
                    <mxGeometry x="360" width="160" height="160" as="geometry"/>
                </mxCell>
                <mxCell id="fz8x1H3jljaNv2-WQJr6-18" value="JComponent" style="html=1;strokeColor=#FFFFFF;fillColor=#333333;shadow=0;" vertex="1" parent="1">
                    <mxGeometry x="520" y="-120" width="120" height="40" as="geometry"/>
                </mxCell>
                <mxCell id="fz8x1H3jljaNv2-WQJr6-19" value="List" style="html=1;strokeColor=#FFFFFF;fillColor=#333333;shadow=0;" vertex="1" parent="1">
                    <mxGeometry x="385" y="-120" width="110" height="40" as="geometry"/>
                </mxCell>
                <mxCell id="fz8x1H3jljaNv2-WQJr6-20" value="JFrame" style="html=1;strokeColor=#FFFFFF;fillColor=#333333;shadow=0;" vertex="1" parent="1">
                    <mxGeometry x="240" y="-120" width="120" height="40" as="geometry"/>
                </mxCell>
                <mxCell id="fz8x1H3jljaNv2-WQJr6-22" value="" style="endArrow=open;endFill=1;endSize=12;html=1;exitX=1;exitY=0.5;exitDx=0;exitDy=0;entryX=0;entryY=0.5;entryDx=0;entryDy=0;strokeColor=#FFFFFF;fillColor=#333333;shadow=0;" edge="1" parent="1" source="EmACCaGVRRn9EOZ5MB_5-18" target="fz8x1H3jljaNv2-WQJr6-27">
                    <mxGeometry width="160" relative="1" as="geometry">
                        <mxPoint x="580" y="60" as="sourcePoint"/>
                        <mxPoint x="740" y="60" as="targetPoint"/>
                        <Array as="points"/>
                    </mxGeometry>
                </mxCell>
                <mxCell id="fz8x1H3jljaNv2-WQJr6-24" value="" style="endArrow=open;endFill=1;endSize=12;html=1;exitX=0.5;exitY=0;exitDx=0;exitDy=0;entryX=0.5;entryY=1;entryDx=0;entryDy=0;strokeColor=#FFFFFF;fillColor=#333333;shadow=0;" edge="1" parent="1" source="fz8x1H3jljaNv2-WQJr6-17" target="fz8x1H3jljaNv2-WQJr6-19">
                    <mxGeometry width="160" relative="1" as="geometry">
                        <mxPoint x="417.5" as="sourcePoint"/>
                        <mxPoint x="462.5" y="-60" as="targetPoint"/>
                        <Array as="points"/>
                    </mxGeometry>
                </mxCell>
                <mxCell id="fz8x1H3jljaNv2-WQJr6-27" value="Point" style="html=1;strokeColor=#FFFFFF;fillColor=#333333;shadow=0;" vertex="1" parent="1">
                    <mxGeometry x="680" y="200" width="110" height="50" as="geometry"/>
                </mxCell>
                <mxCell id="fz8x1H3jljaNv2-WQJr6-28" value="Extends" style="endArrow=block;endSize=16;endFill=0;html=1;entryX=0.5;entryY=1;entryDx=0;entryDy=0;exitX=1;exitY=0;exitDx=0;exitDy=0;strokeColor=#FFFFFF;fillColor=#333333;shadow=0;" edge="1" parent="1" source="fz8x1H3jljaNv2-WQJr6-17" target="fz8x1H3jljaNv2-WQJr6-18">
                    <mxGeometry width="160" relative="1" as="geometry">
                        <mxPoint x="485" y="-10" as="sourcePoint"/>
                        <mxPoint x="645" y="-10" as="targetPoint"/>
                    </mxGeometry>
                </mxCell>
                <mxCell id="fz8x1H3jljaNv2-WQJr6-29" value="Use" style="endArrow=open;endSize=12;dashed=1;html=1;entryX=0.5;entryY=1;entryDx=0;entryDy=0;exitX=0;exitY=0;exitDx=0;exitDy=0;strokeColor=#FFFFFF;fillColor=#333333;shadow=0;" edge="1" parent="1" source="fz8x1H3jljaNv2-WQJr6-17" target="fz8x1H3jljaNv2-WQJr6-20">
                    <mxGeometry width="160" relative="1" as="geometry">
                        <mxPoint x="205" y="20" as="sourcePoint"/>
                        <mxPoint x="365" y="20" as="targetPoint"/>
                    </mxGeometry>
                </mxCell>
                <mxCell id="fz8x1H3jljaNv2-WQJr6-32" value="Use" style="endArrow=open;endSize=12;dashed=1;html=1;exitX=0.5;exitY=1;exitDx=0;exitDy=0;entryX=0.5;entryY=0;entryDx=0;entryDy=0;strokeColor=#FFFFFF;fillColor=#333333;shadow=0;" edge="1" parent="1" source="fz8x1H3jljaNv2-WQJr6-17" target="2">
                    <mxGeometry width="160" relative="1" as="geometry">
                        <mxPoint x="420" y="180" as="sourcePoint"/>
                        <mxPoint x="373.7864077669901" y="410" as="targetPoint"/>
                        <Array as="points">
                            <mxPoint x="390" y="190"/>
                            <mxPoint x="270" y="180"/>
                        </Array>
                    </mxGeometry>
                </mxCell>
                <mxCell id="fz8x1H3jljaNv2-WQJr6-33" value="" style="endArrow=open;endFill=1;endSize=12;html=1;exitX=0.75;exitY=1;exitDx=0;exitDy=0;entryX=0.25;entryY=0;entryDx=0;entryDy=0;strokeColor=#FFFFFF;fillColor=#333333;shadow=0;" edge="1" parent="1" source="fz8x1H3jljaNv2-WQJr6-17" target="EmACCaGVRRn9EOZ5MB_5-17">
                    <mxGeometry width="160" relative="1" as="geometry">
                        <mxPoint x="450" y="10" as="sourcePoint"/>
                        <mxPoint x="457.54999999999995" y="-48.899999999999864" as="targetPoint"/>
                        <Array as="points"/>
                    </mxGeometry>
                </mxCell>
            </root>
        </mxGraphModel>
    </diagram>
</mxfile>